<?xml version="1.0" standalone="no"?>
<!DOCTYPE svg PUBLIC "-//W3C//DTD SVG 20010904//EN"
 "http://www.w3.org/TR/2001/REC-SVG-20010904/DTD/svg10.dtd">
<svg version="1.0" xmlns="http://www.w3.org/2000/svg"
 width="16.000000pt" height="16.000000pt" viewBox="0 0 16.000000 16.000000"
 preserveAspectRatio="xMidYMid meet">
<metadata>
Created by potrace 1.11, written by Peter Selinger 2001-2013
</metadata>
<g transform="translate(0.000000,16.000000) scale(0.005079,-0.005079)"
fill="#000000" stroke="none">
<path d="M1917 2524 c-149 -27 -301 -89 -437 -180 -79 -52 -120 -89 -120 -107
0 -13 177 -207 189 -207 3 0 36 29 73 64 120 115 275 201 438 242 59 15 109
19 240 18 148 0 174 -3 251 -27 219 -67 390 -184 525 -362 20 -25 38 -44 40
-42 8 8 -50 103 -112 182 -218 283 -537 437 -898 434 -61 0 -146 -7 -189 -15z"/>
<path d="M675 2216 c-92 -19 -174 -48 -249 -90 -66 -37 -213 -167 -235 -209
-8 -15 -19 -24 -24 -20 -6 3 -7 1 -3 -5 4 -6 -5 -28 -19 -49 -69 -105 -111
-284 -101 -433 7 -116 26 -190 75 -295 92 -195 237 -322 452 -397 91 -32 99
-33 254 -32 148 0 166 2 245 28 173 57 291 137 423 285 99 111 107 121 107
127 0 3 14 24 32 46 35 45 52 69 151 218 152 226 251 337 357 394 306 167 653
-63 599 -396 -27 -167 -155 -289 -334 -318 -127 -20 -241 18 -362 120 l-69 58
-142 -125 c-78 -68 -142 -128 -142 -133 0 -15 193 -172 261 -213 139 -82 352
-117 535 -87 374 60 644 377 644 754 0 189 -50 341 -160 491 -79 107 -229 212
-365 255 -22 7 -44 15 -49 18 -12 7 -25 8 -156 17 -206 14 -409 -50 -580 -184
-122 -95 -236 -236 -443 -551 -135 -204 -250 -323 -365 -378 -75 -36 -80 -37
-192 -37 -109 0 -118 2 -175 32 -125 65 -200 178 -212 319 -14 161 76 314 225
382 75 34 193 42 278 17 64 -18 154 -63 154 -77 0 -4 6 -8 13 -8 7 0 39 -27
72 -60 33 -33 62 -60 66 -60 4 0 39 48 79 108 40 59 86 124 102 144 46 59 38
81 -58 158 -99 79 -223 143 -330 170 -103 27 -267 34 -359 16z"/>
<path d="M46 973 c20 -38 56 -93 80 -124 33 -44 40 -60 31 -70 -10 -11 -9 -11
4 -1 14 10 21 6 45 -25 16 -21 28 -41 26 -45 -1 -5 1 -7 6 -6 4 1 17 -4 30
-11 20 -10 21 -15 11 -29 -11 -14 -11 -15 0 -5 10 9 26 2 70 -32 74 -57 227
-137 322 -169 218 -73 491 -73 708 0 157 53 381 190 381 233 0 11 -4 21 -8 23
-5 2 -44 44 -88 93 -43 50 -84 90 -91 90 -6 0 -22 -11 -35 -25 -39 -43 -160
-135 -218 -167 -143 -80 -364 -130 -523 -119 -202 15 -436 107 -562 221 -80
72 -129 122 -144 145 -31 48 -65 90 -74 90 -5 0 8 -30 29 -67z"/>
</g>
</svg>
